<svg width="157" height="32" viewBox="0 0 157 32" fill="none" xmlns="http://www.w3.org/2000/svg">
<path d="M10.768 30.6762H4.91377V15.5549H0.925781V10.6318H4.91361V7.12857C4.91361 2.97728 6.67744 0 12.5158 0C13.7506 0 15.6892 0.257886 15.6892 0.257886V4.82933H13.653C11.5783 4.82933 10.7683 5.48322 10.7683 7.291V10.6318H15.6115L15.1802 15.5549H10.7681L10.768 30.6762ZM24.2006 10.2383C24.1153 10.2383 24.0275 10.2416 23.9406 10.2438C18.5123 10.2438 16.0287 14.4746 16.0287 20.4804C16.0287 28.046 19.2503 31.074 23.9831 31.074C26.6909 31.074 28.4699 29.8931 29.5512 27.6893V30.6783H35.1194V10.6339H29.5512V13.7164C28.6683 11.7332 26.8395 10.2618 24.2006 10.2383ZM25.6164 14.9748C27.8963 14.9748 29.2647 16.6225 29.2647 19.4253L29.27 22.288C29.27 24.1771 28.1398 26.3871 25.6164 26.3871C21.737 26.3871 21.8406 22.0468 21.8406 20.6013C21.8406 15.7386 23.9076 14.9748 25.6164 14.9748ZM37.3681 20.6571C37.3681 18.2214 37.2556 10.2514 47.2771 10.2514C51.2999 10.2514 52.9797 11.5767 52.9797 11.5767L51.6296 15.9155C51.6296 15.9155 49.952 14.9584 47.766 14.9584C44.9663 14.9584 43.1797 16.6401 43.1797 19.599L43.1829 21.7207C43.1829 24.5639 44.9066 26.4618 47.7718 26.4618C49.7632 26.4618 51.5987 25.4956 51.5987 25.4956L52.9453 29.7438C52.9453 29.7438 51.4094 31.0775 47.3052 31.0775C37.7632 31.0775 37.3683 23.9269 37.3683 20.6571H37.3681ZM85.6279 10.2438C91.0564 10.2438 93.5792 14.4746 93.5792 20.4804C93.5792 28.046 90.3574 31.074 85.6247 31.074C82.9168 31.074 80.9152 29.8932 79.8338 27.6893V30.6783L74.3357 30.6761V0.609461L80.1733 0.0819376V13.4448C81.0158 11.107 83.7847 10.2438 85.6281 10.2438H85.6279ZM83.9913 14.9748C81.7114 14.9748 80.1733 16.6225 80.1733 19.4253L80.1679 22.288C80.1645 24.1771 81.233 26.3871 83.9913 26.3871C87.8707 26.3871 87.7671 22.0468 87.7671 20.6013C87.7671 15.7386 85.7003 14.9748 83.9913 14.9748ZM63.1083 10.2604C56.9513 10.2604 53.7009 13.7386 53.7009 19.9198V21.0683C53.7009 29.0909 58.2656 31.1564 63.7076 31.1564C68.9972 31.1564 71.3915 29.6234 71.3915 29.6234L70.2991 25.541C70.2991 25.541 67.4827 26.7826 64.4075 26.7826C61.2195 26.7826 59.8484 25.9407 59.497 22.7663H71.8582V19.4912C71.8582 12.7861 68.2101 10.2602 63.1082 10.2602L63.1083 10.2604ZM63.2567 14.3483C65.388 14.3483 66.769 15.7024 66.6932 18.8429H59.5077C59.6323 15.5376 61.1216 14.3484 63.2567 14.3484V14.3483ZM105.219 10.2329C98.8963 10.2329 95.5677 13.9247 95.5677 20.5407C95.5677 29.6183 101.305 31.0795 105.23 31.0795C110.974 31.0795 114.796 27.8749 114.796 20.6232C114.796 13.0754 110.499 10.2329 105.219 10.2329ZM105.14 14.9912C107.92 14.9912 109.021 17.1472 109.021 19.6013V21.7112C109.021 24.6841 107.48 26.4037 105.129 26.4037C102.93 26.4037 101.385 24.7952 101.385 21.7112V19.6013C101.385 16.3122 103.224 14.9912 105.14 14.9912ZM126.426 10.2329C120.103 10.2329 116.774 13.9247 116.774 20.5407C116.774 29.6183 122.512 31.0795 126.436 31.0795C132.181 31.0795 136.003 27.8749 136.003 20.6232C136.003 13.0754 131.705 10.2329 126.426 10.2329ZM126.346 14.9912C129.126 14.9912 130.228 17.1472 130.228 19.6013V21.7112C130.228 24.6841 128.686 26.4037 126.336 26.4037C124.137 26.4037 122.592 24.7952 122.592 21.7112V19.6013C122.592 16.3122 124.43 14.9912 126.346 14.9912ZM138.209 30.6762V0.609461L144.063 0.0819376V20.2346L149.872 10.6318H156.054L149.995 20.5774L156.288 30.6762H150.087L144.063 20.8704V30.6762H138.209Z" fill="#A8A8A8"/>
</svg>
