<svg width="127" height="43" viewBox="0 0 127 43" fill="none" xmlns="http://www.w3.org/2000/svg">
<path d="M15.6323 0H16.761C20.6795 0.0882651 24.5342 1.72117 27.3028 4.61185C26.2805 5.6931 25.237 6.73022 24.2361 7.81146C22.6814 6.35509 20.8073 5.22971 18.7628 4.83251C15.7387 4.17053 12.4804 4.76632 9.94609 6.55368C7.17755 8.42932 5.30345 11.6069 4.89882 15.0051C4.45159 18.3591 5.36734 21.8897 7.4757 24.4936C9.49887 27.0312 12.5869 28.62 15.7813 28.7303C18.7628 28.9068 21.8721 27.958 24.0444 25.7955C25.7481 24.2729 26.5361 21.9559 26.7916 19.7052C23.2564 19.7052 19.7212 19.7273 16.186 19.7052V15.1595H31.0722C31.8389 20.0362 30.7315 25.5307 27.1537 29.0172C24.7685 31.4886 21.4675 32.945 18.1027 33.2318C14.8443 33.5628 11.4794 32.9229 8.58311 31.29C5.11178 29.3702 2.34324 26.1265 0.980259 22.309C-0.297531 18.8005 -0.318828 14.8285 0.873777 11.2979C1.9599 8.07626 4.04696 5.22971 6.73032 3.24374C9.3072 1.27984 12.4378 0.198596 15.6323 0Z" fill="#A8A8A8"/>
<path d="M101.031 1.14746H105.589V32.658C104.077 32.658 102.543 32.6801 101.031 32.636C101.053 22.1545 101.031 11.651 101.031 1.14746Z" fill="#A8A8A8"/>
<path d="M41.2092 12.0707C44.0204 11.5191 47.0658 12.1369 49.3871 13.8802C51.4954 15.4248 52.9649 17.8521 53.4121 20.5C53.9871 23.5672 53.2631 26.9212 51.3464 29.3485C49.2806 32.0626 45.8944 33.519 42.5935 33.2983C39.5694 33.1218 36.6305 31.5551 34.8415 28.9954C32.8184 26.171 32.3285 22.2873 33.436 18.9774C34.5434 15.4248 37.674 12.7107 41.2092 12.0707ZM41.8481 16.2633C40.6981 16.5722 39.6333 17.2563 38.8666 18.2272C36.8008 20.7869 36.9286 24.9573 39.2073 27.3405C40.5064 28.7086 42.4657 29.3485 44.2759 28.9734C45.9583 28.6645 47.4278 27.495 48.2371 25.9503C49.6426 23.3245 49.238 19.7056 47.0871 17.6535C45.7028 16.3295 43.6796 15.7778 41.8481 16.2633Z" fill="#A8A8A8"/>
<path d="M63.7826 12.0704C66.9984 11.4305 70.5123 12.3573 72.9188 14.6963C76.8374 18.3372 77.2633 25.1557 73.9197 29.3483C71.8966 31.9963 68.6169 33.4527 65.3798 33.2982C62.2918 33.2099 59.2464 31.6212 57.4149 28.9953C55.3492 26.1046 54.9019 22.1327 56.0732 18.7565C57.2446 15.3142 60.3113 12.6883 63.7826 12.0704ZM64.4215 16.263C63.2715 16.5719 62.2066 17.256 61.44 18.2049C59.3955 20.7204 59.4807 24.8247 61.6742 27.23C62.9733 28.6643 64.9965 29.3704 66.8706 28.9732C68.5317 28.6422 70.0225 27.4948 70.8317 25.9501C72.216 23.3022 71.8114 19.6833 69.6391 17.6311C68.2549 16.3071 66.2317 15.7776 64.4215 16.263Z" fill="#A8A8A8"/>
<path d="M82.9293 13.3502C85.3784 11.7614 88.6368 11.3201 91.2775 12.6882C92.1081 13.0633 92.7896 13.7033 93.4498 14.3432C93.4711 13.7474 93.4498 13.1295 93.4711 12.5117C94.8979 12.5338 96.3248 12.5117 97.773 12.5338V31.9962C97.7517 34.931 97.0276 38.0423 94.9831 40.1827C92.747 42.5438 89.3182 43.272 86.2302 42.7866C82.9293 42.279 80.0542 39.7856 78.7764 36.6301C80.0542 35.9902 81.3959 35.4826 82.7163 34.8869C83.4617 36.6963 84.9737 38.2409 86.8691 38.594C88.7645 38.947 90.9581 38.4616 92.1933 36.8287C93.5137 35.1516 93.5137 32.8568 93.4498 30.8046C92.4701 31.7976 91.3414 32.6802 89.9784 33.0112C87.0182 33.8718 83.7598 32.8126 81.4811 30.7384C79.1811 28.6642 77.8181 25.4646 77.9459 22.287C78.0098 18.6902 79.9691 15.2258 82.9293 13.3502ZM87.3377 16.1747C86.0386 16.3954 84.8247 17.1456 83.9941 18.1827C81.9922 20.6541 81.9922 24.604 84.0154 27.0313C85.1654 28.4656 87.0182 29.26 88.8071 29.0614C90.4896 28.8848 92.0442 27.7815 92.8748 26.259C94.2803 23.6772 94.0461 20.1687 92.1507 17.9179C90.9794 16.5277 89.1053 15.8437 87.3377 16.1747Z" fill="#A8A8A8"/>
<path d="M111.059 14.4754C113.615 12.004 117.555 11.1655 120.834 12.4674C123.944 13.6811 125.924 16.7483 126.925 19.9037C122.304 21.8897 117.704 23.8536 113.082 25.8396C113.721 27.0973 114.701 28.2448 116.021 28.7082C117.874 29.3922 120.089 29.1495 121.644 27.8697C122.261 27.3842 122.751 26.7443 123.22 26.1264C124.391 26.9429 125.562 27.7373 126.733 28.5537C125.072 31.1355 122.282 32.9449 119.28 33.2318C115.957 33.651 112.422 32.3271 110.271 29.635C106.736 25.3982 107.077 18.2929 111.059 14.4754ZM113.338 18.5577C112.614 19.639 112.316 20.9629 112.337 22.2648C115.425 20.9409 118.513 19.6169 121.601 18.2708C121.09 17.0351 119.855 16.2849 118.598 16.0863C116.575 15.7112 114.467 16.8365 113.338 18.5577Z" fill="#A8A8A8"/>
</svg>
