<svg width="165" height="55" viewBox="0 0 165 55" fill="none" xmlns="http://www.w3.org/2000/svg">
<g clip-path="url(#clip0_1_634)">
<path d="M15.5488 0.144631C14.4588 0.560621 12.6635 2.80057 11.6055 5.00852C10.1628 8.08045 9.52161 10.8004 9.52161 13.9363C9.52161 16.2083 9.64985 16.9442 10.3872 18.5762C10.8681 19.6002 11.6376 20.8801 12.1185 21.3921C13.2085 22.5441 15.2282 23.4721 16.6068 23.5041C17.4724 23.5041 17.6327 23.6321 17.6327 24.3041C17.6327 24.7521 17.3442 25.808 17.0236 26.704C15.613 30.3839 12.7596 32.4639 9.00865 32.4639C6.34769 32.4639 4.42411 31.5999 3.71879 30.0959C2.85318 28.272 3.04554 27.152 4.52029 25.36C5.51414 24.2081 5.89886 23.4401 6.0271 22.3841C6.15533 21.1041 6.09122 20.9121 5.41796 20.6882C3.59055 20.0162 1.31431 21.7121 0.608996 24.2081C0.416638 24.9761 0.320459 26.416 0.416638 27.44C0.897534 32.6879 4.84089 35.3758 11.3811 34.9278C14.9718 34.6718 16.8312 33.9678 18.7869 31.9839C20.8387 29.9679 21.7043 27.696 22.1211 23.5361C22.4738 20.0162 22.5379 6.54448 22.2493 2.92857C22.0249 0.496623 22.0249 0.464624 21.0311 0.336627C18.7548 -0.0153653 16.158 -0.111363 15.5488 0.144631ZM17.5366 4.68853C17.7289 4.94452 17.793 8.08045 17.6968 12.5283C17.5686 19.4402 17.5045 19.9842 16.9595 20.1442C15.9015 20.4962 14.6191 19.6002 13.7856 17.9042C13.0482 16.4643 12.9841 15.9203 12.9841 12.4643C12.9841 8.30444 13.3367 6.80048 14.6512 5.26451C15.4847 4.24054 16.9595 3.95254 17.5366 4.68853ZM56.2968 1.00861C56.2006 1.2646 56.1044 2.22458 56.1044 3.12056C56.1044 4.04854 56.0083 5.7445 55.88 6.92847L55.6877 9.10442H54.2129C52.7702 9.10442 50.4299 9.55241 50.1093 9.8404C50.0452 9.9364 50.1093 10.2884 50.3016 10.6404C50.6222 11.2164 51.2955 11.4724 54.7579 12.1763L55.4632 12.3043L55.3991 19.9202C55.303 26.576 55.3671 27.76 55.9121 29.4879C56.938 32.8799 59.2784 34.9278 61.6508 34.4798C62.837 34.2558 64.4079 32.5599 65.4659 30.3839C65.9468 29.3279 66.3636 28.752 66.3636 29.104C66.3636 30.1599 67.8704 33.0079 68.6719 33.5519C69.0886 33.8398 70.2107 34.1918 71.1405 34.3838C73.8976 34.8958 75.5006 33.7438 77.1357 30.0319L77.6486 28.784L77.9371 29.7119C78.2898 30.9919 80.021 32.6879 81.1752 32.9119C82.4255 33.1679 84.0926 32.4319 84.9582 31.2479L85.6956 30.2559L86.3689 31.5999C87.2665 33.3279 88.2283 33.9998 90.5366 34.4158C92.2358 34.7038 92.5243 34.7038 93.2617 34.1278C93.7105 33.8078 94.48 32.8159 94.9609 31.9519L95.8586 30.3839V34.1918L93.4861 36.5278C90.8572 39.0877 88.9336 42.4476 88.0039 46.0636C86.433 52.2394 88.4207 54.9594 94.5441 54.9914C97.173 55.0233 97.2051 55.0233 98.1027 53.9674C99.6095 52.1754 99.834 50.8314 100.026 42.7036L100.187 35.1838H101.213C101.79 35.1838 102.431 34.9918 102.655 34.7678C103.008 34.4158 102.944 34.2238 102.303 33.7118C101.886 33.3919 101.18 33.1039 100.732 33.1039H99.9301L100.09 27.888C100.219 23.8881 100.379 22.4481 100.796 21.6481L101.341 20.5922L100.283 20.1762L99.2248 19.7282V16.8482C99.2248 14.0963 99.1607 13.9043 98.3272 13.0083C97.8463 12.4963 96.8203 11.9204 96.083 11.6964C95.3456 11.5044 94.0632 11.0244 93.2296 10.6404C91.4664 9.8404 90.5366 10.0004 88.9978 11.3444C86.8177 13.2643 85.7277 17.0402 85.3109 23.9841C85.0544 28.432 84.5735 29.9999 83.3552 30.3839C82.4576 30.6719 81.8484 30.0959 81.4317 28.656C81.0149 27.088 81.0149 23.4721 81.4958 21.6801C81.8484 20.2722 81.8164 20.1762 81.0469 19.5362C80.3096 18.9282 80.2134 18.5762 80.0851 16.2083C79.8928 12.8483 79.4119 12.1763 76.4303 10.9604C70.4672 8.52843 67.4857 11.2164 66.3636 20.1122C66.2033 21.4881 65.9147 22.8001 65.7544 22.9921C65.5941 23.1841 65.2094 24.3361 64.9529 25.52C64.3117 28.208 63.4141 30.0639 62.324 30.7359C61.5546 31.2479 61.4905 31.2479 60.8813 30.6399C59.9196 29.6799 59.631 26.672 59.8234 19.9842C60.0478 11.6004 59.9196 12.0804 62.0676 11.7924C63.0614 11.6964 64.7926 11.5684 65.9147 11.5684C68.1269 11.5364 68.4474 11.2484 67.3254 10.2244C66.8124 9.77641 65.9468 9.58441 63.5423 9.45641L60.4325 9.26442L60.4966 7.02447C60.5287 5.7765 60.6569 4.08054 60.7531 3.24856C60.9455 1.74459 60.9134 1.71259 59.8875 1.2966C58.0921 0.592621 56.4892 0.432624 56.2968 1.00861ZM94.8006 14.3523C95.6341 15.0883 95.6982 15.2803 95.6662 17.4882C95.6021 21.8081 94.7685 26.672 93.7105 28.784C92.9732 30.2559 91.6587 31.5039 90.8252 31.5039C90.4084 31.5039 89.8634 31.1519 89.5428 30.6399C88.6772 29.36 88.7092 20.9121 89.5748 18.3842C90.4084 15.8883 91.3061 14.5443 92.4602 14.0323C93.7747 13.4563 93.7747 13.4563 94.8006 14.3523ZM76.238 15.0243C77.1036 16.1443 77.4242 18.4802 76.815 19.4082C76.5586 19.8242 76.2059 21.6801 76.0136 23.5681C75.5327 27.856 74.8915 30.0959 73.7373 31.2479C72.3908 32.5599 71.2687 32.4639 70.6275 30.9279C69.3772 28.016 69.8901 19.6002 71.5252 16.4323C72.6793 14.1603 75.0197 13.4563 76.238 15.0243ZM95.5379 47.2795C94.9609 50.9914 93.5823 52.9114 91.819 52.4954C90.1519 52.0794 89.639 49.0715 90.5687 45.4236C91.274 42.7676 92.9732 39.2797 94.4479 37.5838L95.6982 36.1758L95.7944 40.6237C95.8265 43.0876 95.7303 46.0956 95.5379 47.2795Z" fill="#A8A8A8"/>
<path d="M119.743 11.4724C118.108 13.1684 117.147 15.7283 116.666 19.8242C116.217 23.6641 114.934 28.72 114.037 30.352C113.492 31.344 113.139 31.6639 112.53 31.6639C111.248 31.6639 110.831 29.904 111.023 25.1041C111.151 22.1922 111.376 20.4642 111.921 18.7362L112.658 16.3683L111.953 15.7923C111.504 15.4403 110.414 15.1523 109.068 15.0243C107.881 14.9283 106.695 14.8003 106.439 14.7683C106.118 14.7043 105.958 14.2884 105.958 13.4244C105.926 11.6004 105.605 11.2484 104.291 11.4404C102.335 11.7604 102.335 11.8244 102.495 17.2003C102.624 20.3362 102.527 22.9282 102.271 24.4641C101.694 27.856 101.726 28.112 102.367 28.24C103.233 28.432 104.066 26.1281 104.739 21.5842L105.349 17.5843H107.24L107.112 21.7442C106.92 29.904 108.619 34.0639 112.145 34.0639C113.62 34.0639 114.902 33.0719 115.832 31.184L116.634 29.616L117.147 30.992C117.435 31.7279 118.076 32.7199 118.557 33.1679C119.615 34.1599 122.597 34.8959 123.815 34.4159C124.873 34.0319 126.252 32.3359 127.117 30.448L127.79 28.88L128.4 30.224C129.938 33.6479 133.465 33.9039 135.549 30.768L136.415 29.456L136.607 31.12C136.895 33.2319 137.248 33.6479 139.011 33.9359C141.801 34.3519 141.801 34.3199 142.442 29.52C142.987 25.2001 143.82 21.5842 144.301 21.5842C144.429 21.5842 144.59 23.7281 144.654 26.3521C144.75 30.48 144.846 31.216 145.359 31.7919C146.61 33.1679 149.719 32.9439 149.719 31.472C149.719 30.352 151.002 25.7121 152.06 23.0241L153.086 20.4642L153.246 24.9441C153.374 28.912 153.502 29.616 154.208 30.992C154.657 31.8879 155.394 32.8799 155.875 33.2319C157.061 34.0959 159.337 34.0959 160.491 33.2319C162.96 31.408 165.525 23.5041 163.665 23.5041C163.088 23.5041 162.704 24.2721 162.383 25.9041C161.646 30 159.177 32.3359 158.055 29.968C157.382 28.592 157.285 23.0881 157.895 20.4642C158.856 16.3043 158.888 16.6243 157.606 15.6643C156.805 15.0563 155.907 14.7043 154.881 14.6083L153.374 14.4803L152.541 16.3363C152.06 17.3923 151.002 20.1762 150.136 22.5442L148.597 26.8641L148.501 22.0002L148.405 17.1043L147.475 16.6243C144.91 15.3123 143.564 16.4963 142.057 21.4562C141.48 23.3761 140.967 25.0721 140.903 25.2641C140.839 25.4241 140.775 22.8322 140.775 19.4402C140.743 15.6323 140.614 13.2324 140.422 13.1044C140.23 12.9764 139.3 12.8164 138.37 12.7204L136.639 12.5284L136.511 18.5763C136.382 23.6641 136.254 24.9441 135.677 26.7361C134.427 30.48 132.824 31.6319 131.894 29.424C131.349 28.112 131.285 23.2801 131.798 21.4242C132.119 20.2722 132.086 20.1122 131.349 19.5042C130.676 18.9602 130.548 18.4803 130.355 16.3363C130.099 13.4884 129.618 12.2724 128.496 11.7924C125.129 10.2244 124.552 10.0645 122.885 10.0645C121.154 10.0645 120.994 10.1285 119.743 11.4724ZM125.995 14.5443C127.053 15.1203 127.758 18.7362 126.957 19.5362C126.797 19.6962 126.476 21.3602 126.316 23.1841C125.867 27.536 125.162 30 124.039 31.216C122.853 32.4639 121.539 32.3999 120.898 31.056C119.808 28.752 119.872 22.2562 121.026 18.2563C121.988 15.0243 124.007 13.4884 125.995 14.5443ZM26.161 12.5604C25.9045 13.0084 25.2313 28.176 25.3916 29.968C25.616 32.0799 26.3213 32.7839 28.1808 32.7839C28.9823 32.7839 29.8158 32.6559 30.0082 32.5279C30.2326 32.3999 30.6173 31.088 30.9058 29.584C31.515 26.6081 32.4768 23.4721 33.1821 22.2242C33.5989 21.4882 33.6309 21.7762 33.663 25.2641C33.663 29.52 34.1118 30.992 35.5866 31.7599C36.6445 32.3039 38.6643 32.0479 39.8185 31.184C40.7802 30.48 40.7802 30.48 41.2291 31.12C42.255 32.5919 46.6792 33.4559 49.789 32.7839C52.1294 32.3039 53.54 31.184 53.54 29.776C53.54 28.4 53.0591 27.792 49.7249 25.1041C46.3907 22.4162 45.8457 21.7122 45.8457 20.1442C45.8457 17.8403 48.699 16.4643 50.3661 17.9363C51.1356 18.6403 51.8088 18.4803 52.7385 17.3923C53.4118 16.5923 53.54 16.1123 53.4759 15.0563C53.3797 13.9684 53.2194 13.6804 52.4179 13.2964C50.6226 12.4324 44.7557 14.0004 42.6718 15.9203C41.0047 17.4563 40.6199 19.8242 41.6779 21.8722C42.1588 22.8642 42.2229 23.1521 41.8703 23.2801C41.6459 23.3761 41.3573 24.0801 41.2291 24.8161C40.7161 28.048 39.017 30.256 37.8628 29.136C37.446 28.688 37.3499 27.728 37.2857 23.3761C37.2537 19.3762 37.1254 17.9043 36.7407 17.1683C36.1957 16.1123 34.9454 15.6323 33.9836 16.1443C33.1821 16.5603 31.8997 18.7683 30.7455 21.6802L29.8479 23.9841L29.8158 18.8002C29.8158 13.7764 29.7837 13.5844 29.1105 13.1364C28.1166 12.5284 26.3854 12.2084 26.161 12.5604ZM47.609 27.76C48.3784 28.432 49.0517 29.232 49.1478 29.584C49.6287 31.376 46.9998 31.8879 44.948 30.384C44.2748 29.904 43.3771 29.264 42.8641 28.976C42.3191 28.656 42.0626 28.304 42.1909 27.984C42.2871 27.728 42.5435 26.7041 42.7359 25.7121L43.0885 23.8881L44.6915 25.2321C45.5571 25.9361 46.8716 27.0881 47.609 27.76Z" fill="#A8A8A8"/>
</g>
<defs>
<clipPath id="clip0_1_634">
<rect width="164" height="55" fill="white" transform="translate(0.339844)"/>
</clipPath>
</defs>
</svg>
