<svg width="112" height="113" viewBox="0 0 112 113" fill="none" xmlns="http://www.w3.org/2000/svg">
<ellipse cx="56" cy="56.5" rx="56" ry="56.5" fill="white" fill-opacity="0.5"/>
<path d="M83.1066 56.5014C83.1082 57.1647 82.9396 57.817 82.6173 58.3951C82.295 58.9732 81.8299 59.4573 81.2672 59.8003L46.3968 81.3225C45.8089 81.6857 45.1356 81.884 44.4463 81.8969C43.7571 81.9098 43.0769 81.7368 42.4761 81.3958C41.881 81.0601 41.3852 80.5705 41.0398 79.9774C40.6944 79.3843 40.5118 78.7091 40.5108 78.0212V34.9816C40.5118 34.2937 40.6944 33.6185 41.0398 33.0254C41.3852 32.4323 41.881 31.9427 42.4761 31.607C43.0769 31.266 43.7571 31.093 44.4463 31.1059C45.1356 31.1188 45.8089 31.3171 46.3968 31.6803L81.2672 53.2025C81.8299 53.5455 82.295 54.0296 82.6173 54.6077C82.9396 55.1857 83.1082 55.8381 83.1066 56.5014Z" fill="white"/>
</svg>
