<svg width="164" height="55" viewBox="0 0 164 55" fill="none" xmlns="http://www.w3.org/2000/svg">
<g clip-path="url(#clip0_1_612)">
<path d="M0.339844 39.546L0.480593 39.9583C0.465111 39.9131 0.410218 39.7698 0.339844 39.546ZM6.13939 30.1429C6.21617 29.191 6.5059 28.2687 6.98705 27.4447C7.46819 26.6206 8.12836 25.9159 8.91847 25.3831C11.2774 23.6529 14.2177 24.6299 14.2177 24.6299V18.8119C14.9321 18.7938 15.6469 18.8387 16.3535 18.9461V26.4285C16.3535 26.4285 13.4133 25.4515 11.0543 27.1817C10.2642 27.7145 9.60405 28.4192 9.12291 29.2433C8.64176 30.0673 8.35203 30.9896 8.27525 31.9415C8.21925 33.4221 8.6424 34.8812 9.48146 36.1006C9.23093 35.9665 8.9811 35.814 8.72212 35.6432C7.86927 35.0144 7.18637 34.182 6.73537 33.2216C6.28436 32.2611 6.07951 31.2029 6.13939 30.1429ZM28.5184 8.05558C27.2478 6.63153 26.3969 4.88115 26.0609 3H28.1018C28.0137 5.53541 28.9331 8.00213 30.6578 9.85772L30.7028 9.90219C29.901 9.38129 29.168 8.76084 28.5212 8.05558H28.5184ZM38.3398 13.3265V20.6593C36.8142 20.5893 35.2979 20.3824 33.8091 20.0409C32.2603 19.6434 30.7745 19.0309 29.3946 18.2211C29.3946 18.2211 28.1982 17.4326 28.1074 17.3783V32.5274C28.0573 34.1334 27.7557 35.7215 27.2137 37.2336C25.9297 40.5653 23.4042 43.2655 20.1713 44.7633C18.4113 45.5765 16.4968 45.9984 14.559 46C11.8734 45.9921 9.24757 45.2044 6.99866 43.732C6.22239 43.1949 5.49832 42.5856 4.83606 41.9122L4.85365 41.9298C7.10035 43.407 9.72763 44.1951 12.414 44.1979C14.3517 44.1962 16.2663 43.7743 18.0263 42.9611C21.2592 41.4633 23.7847 38.7631 25.0687 35.4314C25.6107 33.9194 25.9123 32.3313 25.9624 30.7252V15.5853C26.0609 15.639 27.2496 16.4281 27.2496 16.4281C28.6295 17.2379 30.1153 17.8504 31.6641 18.2479C33.1529 18.5894 34.6692 18.7964 36.1948 18.8663V13.1203C36.8943 13.3006 37.6176 13.3701 38.3384 13.3265H38.3398Z" fill="#A8A8A8"/>
<path d="M36.3398 13.0626V18.781C34.7812 18.7114 33.2321 18.5054 31.7111 18.1656C30.1288 17.77 28.6108 17.1604 27.201 16.3545C27.201 16.3545 25.9787 15.5698 25.886 15.5157V30.5921C25.8347 32.1904 25.5266 33.7709 24.9729 35.2757C23.6611 38.5914 21.081 41.2786 17.7782 42.7692C15.98 43.5785 14.0241 43.9984 12.0444 44C9.30067 43.9921 6.61802 43.2082 4.32044 41.7429L4.30246 41.7253C3.91871 41.3431 3.55607 40.9412 3.2161 40.5212C2.35229 39.4052 1.65735 38.1735 1.15265 36.864V36.8549C0.603052 35.2877 0.328373 33.641 0.340211 31.9844C0.379621 29.8251 0.952875 27.707 2.0111 25.8109C2.85493 24.3474 3.95147 23.0376 5.25222 21.9394C6.4016 20.993 7.70357 20.2393 9.1052 19.709C10.6209 19.0853 12.2449 18.7515 13.8892 18.7255V24.5148C13.8892 24.5148 10.8854 23.5425 8.47538 25.2643C7.61436 25.8179 6.90442 26.5683 6.40704 27.4503C5.90966 28.3324 5.63984 29.3197 5.62093 30.3266C5.60203 31.3336 5.83461 32.3298 6.29854 33.2291C6.76246 34.1285 7.44375 34.9037 8.28341 35.4878C8.54799 35.6571 8.80395 35.8089 9.05918 35.943C9.93904 37.0874 11.1924 37.904 12.6119 38.2576C14.0314 38.6112 15.5319 38.4806 16.8651 37.8876C17.6386 37.5573 18.3321 37.0711 18.9 36.4608C19.468 35.8506 19.8976 35.13 20.1608 34.3462C20.4459 33.3974 20.5603 32.4074 20.4987 31.4203V3H25.9766C26.3157 4.87343 27.1855 6.61646 28.4872 8.0313C29.1521 8.729 29.9004 9.34601 30.716 9.86904C31.5974 10.7924 32.6313 11.5644 33.7746 12.1529C34.5901 12.5544 35.4511 12.8609 36.3398 13.0661V13.0626Z" fill="#A8A8A8"/>
<path d="M125.296 29.4716C125.292 29.9204 125.359 30.3671 125.493 30.7954C125.493 30.8343 125.514 30.8545 125.514 30.8934C125.831 31.9127 126.468 32.8038 127.329 33.4364C128.19 34.0689 129.231 34.4097 130.3 34.4089V39.466C127.891 39.7129 125.466 39.1872 123.377 37.9649C121.882 37.0395 120.657 35.7399 119.821 34.1952C118.985 32.6504 118.569 30.9142 118.613 29.159C118.656 27.4038 119.159 25.6906 120.071 24.1894C120.983 22.6883 122.273 21.4515 123.811 20.6018C125.825 19.5977 128.077 19.1672 130.319 19.3574V24.4145C129.662 24.4134 129.01 24.542 128.403 24.7928C127.795 25.0436 127.243 25.4118 126.778 25.8761C126.313 26.3404 125.944 26.8918 125.693 27.4986C125.442 28.1055 125.313 28.7558 125.314 29.4125L125.296 29.4716Z" fill="#A8A8A8"/>
<path d="M135.345 29.4718C135.349 29.9206 135.282 30.3673 135.148 30.7955C135.148 30.8344 135.127 30.8546 135.127 30.8935C134.81 31.9129 134.174 32.804 133.312 33.4366C132.451 34.0691 131.41 34.4099 130.341 34.4091V39.4662C132.743 39.7129 135.162 39.187 137.244 37.9651C138.718 37.0772 139.934 35.8213 140.773 34.321C141.613 32.8208 142.046 31.128 142.031 29.4095C142.038 27.6094 141.558 25.8408 140.642 24.2902C139.726 22.7396 138.409 21.4644 136.828 20.5989C134.815 19.5948 132.563 19.1642 130.32 19.3544V24.4115C130.978 24.4105 131.629 24.5391 132.237 24.7899C132.844 25.0407 133.397 25.4088 133.862 25.8731C134.327 26.3374 134.695 26.8888 134.946 27.4957C135.197 28.1025 135.326 28.7529 135.325 29.4095V29.4686L135.345 29.4718Z" fill="#A8A8A8"/>
<path d="M52.8398 14.7773H71.3764L69.6629 19.8733H64.8169V39.3707H58.8525V19.8733H52.8398V14.7773ZM101.976 14.7773V19.8733H107.988V39.3707H113.962V19.8733H118.808L120.522 14.7773H101.976ZM75.4108 20.5656C75.982 20.5656 76.5403 20.3964 77.0153 20.0795C77.4902 19.7626 77.8604 19.3122 78.0789 18.7852C78.2975 18.2583 78.3547 17.6784 78.2433 17.1189C78.1318 16.5595 77.8568 16.0456 77.4529 15.6423C77.049 15.2389 76.5344 14.9643 75.9742 14.853C75.414 14.7417 74.8333 14.7988 74.3056 15.0171C73.7779 15.2354 73.3269 15.605 73.0096 16.0793C72.6922 16.5536 72.5228 17.1112 72.5228 17.6816C72.5216 18.0605 72.5954 18.436 72.74 18.7863C72.8846 19.1367 73.0972 19.455 73.3654 19.7231C73.6337 19.9911 73.9523 20.2035 74.3031 20.3481C74.6539 20.4927 75.0298 20.5666 75.4092 20.5656H75.4108ZM72.5213 39.3551H78.3767V22.6002H72.5213V39.3551ZM99.4226 20.4318H92.5781L86.6838 26.318V14.7773H80.869L80.8487 39.3302H86.7243V32.9307L88.5437 31.2662L94.2402 39.3256H100.505L92.2495 27.5531L99.4226 20.4318ZM155.56 27.5873L162.726 20.4318H155.881L149.987 26.318V14.7773H144.167L144.128 39.3551H150.004V32.9556L151.844 31.2958L157.54 39.3551H163.811L155.56 27.5873ZM140.507 29.4042C140.534 31.426 139.959 33.4103 138.854 35.1047C137.75 36.7991 136.165 38.1272 134.302 38.92C132.44 39.7128 130.383 39.9345 128.394 39.557C126.405 39.1794 124.573 38.2197 123.132 36.7997C121.69 35.3798 120.704 33.5639 120.299 31.5828C119.894 29.6018 120.088 27.5451 120.856 25.6744C121.624 23.8037 122.933 22.2035 124.614 21.0771C126.296 19.9508 128.274 19.3493 130.299 19.3491C132.987 19.3305 135.573 20.3788 137.488 22.2635C139.402 24.1482 140.489 26.715 140.508 29.3996L140.507 29.4042ZM135.304 29.4042C135.304 28.4157 135.011 27.4494 134.461 26.6275C133.911 25.8056 133.129 25.165 132.214 24.7867C131.3 24.4084 130.294 24.3094 129.323 24.5023C128.352 24.6951 127.46 25.1711 126.76 25.8701C126.06 26.5691 125.584 27.4597 125.391 28.4292C125.197 29.3987 125.297 30.4036 125.675 31.3169C126.054 32.2302 126.696 33.0107 127.519 33.5599C128.342 34.1091 129.309 34.4022 130.299 34.4022C130.957 34.4035 131.609 34.2749 132.217 34.0239C132.825 33.7729 133.378 33.4044 133.843 32.9396C134.308 32.4747 134.677 31.9227 134.928 31.3152C135.179 30.7077 135.307 30.0567 135.306 29.3996L135.304 29.4042Z" fill="#A8A8A8"/>
</g>
<defs>
<clipPath id="clip0_1_612">
<rect width="163" height="55" fill="white" transform="translate(0.339844)"/>
</clipPath>
</defs>
</svg>
