<svg width="144" height="33" viewBox="0 0 144 33" fill="none" xmlns="http://www.w3.org/2000/svg">
<path d="M24.146 32.7079L14.7716 32.5302C11.7363 32.4683 8.69353 32.592 5.71788 31.9506C1.19101 30.9924 0.870325 26.2943 0.534725 22.3534C0.0723434 16.8129 0.25133 11.172 1.12389 5.67793C1.6161 2.59476 3.55512 0.755667 6.55315 0.554759C16.6733 -0.171604 26.8607 -0.0866041 36.9585 0.253395C38.025 0.284304 39.0989 0.454304 40.1504 0.647486C45.341 1.59021 45.4678 6.91429 45.8034 11.3961C46.139 15.9243 45.9973 20.4756 45.3559 24.9729C44.8414 28.6974 43.8569 31.8193 39.703 32.1206C34.4974 32.5147 29.4112 32.8315 24.1908 32.7311C24.1908 32.7079 24.161 32.7079 24.146 32.7079ZM18.6347 23.2806C22.5575 20.947 26.4057 18.652 30.3062 16.3338C26.3759 14.0002 22.5352 11.7052 18.6347 9.38702V23.2806Z" fill="#A8A8A8"/>
<path d="M120.996 28.4731C120.817 29.2304 120.66 29.8254 120.503 30.459H116.834V1.13379H121.115V11.9521C121.339 11.6584 121.45 11.5348 121.547 11.4034C122.278 10.3602 123.225 9.68023 124.448 9.4175C126.395 9.0234 128.058 9.91205 128.647 11.8516C129.028 13.0571 129.274 14.3475 129.303 15.6071C129.363 18.8448 129.318 22.0749 129.207 25.3126C129.162 26.3017 128.871 27.314 128.506 28.2413C127.305 31.3013 123.382 31.765 121.436 29.1145C121.316 28.9522 121.204 28.7745 120.996 28.4731ZM121.204 20.4058V25.7685C121.204 26.6417 121.652 27.1749 122.495 27.3758C123.322 27.5767 123.994 27.2445 124.329 26.4485C124.471 26.1163 124.613 25.7685 124.62 25.4208C124.702 22.1444 124.777 18.868 124.799 15.5839C124.799 14.9735 124.657 14.3398 124.478 13.7448C124.143 12.6707 123.218 12.3539 122.308 12.9798C121.622 13.4589 121.204 14.1389 121.204 15.043V20.4058ZM109.57 9.83477H114.052V30.4745H110.555C110.428 29.694 110.301 28.8904 110.152 27.9477C109.913 28.3108 109.772 28.5427 109.622 28.7745C108.459 30.5131 106.811 31.1081 104.864 30.7913C103.201 30.5131 102.202 29.184 101.978 27.0049C101.911 26.3558 101.881 25.699 101.881 25.0499C101.866 20.2203 101.881 15.3753 101.881 10.5457V9.81932H106.416V10.6616C106.416 15.3289 106.401 19.9885 106.431 24.6558C106.431 25.3204 106.498 26.0081 106.61 26.6726C106.736 27.3526 107.214 27.5999 107.855 27.5536C108.892 27.4686 109.608 26.6726 109.608 25.6063V10.7466C109.57 10.4452 109.57 10.167 109.57 9.83477ZM78.7101 9.81932H83.2145V10.6925C83.2145 15.3366 83.1996 19.973 83.2295 24.6017C83.2295 25.2663 83.2891 25.954 83.4234 26.6031C83.5949 27.3681 84.0274 27.6154 84.7657 27.5149C85.7875 27.3681 86.4065 26.634 86.4139 25.5599V10.7775V9.85023H90.896V30.4745H87.4133C87.2865 29.7095 87.1597 28.9213 86.9956 27.9245C86.7719 28.2722 86.6451 28.4731 86.5183 28.6818C85.3549 30.4513 83.7217 31.1004 81.7304 30.7836C80.1345 30.5363 79.1575 29.3154 78.8592 27.314C78.7772 26.6881 78.7175 26.0699 78.7175 25.444C78.7026 20.429 78.7026 15.3907 78.7026 10.3757L78.7101 9.81932ZM76.3981 20.8385C76.3832 21.534 76.3385 22.2294 76.3012 22.9249C76.1297 25.0113 76.0476 27.9708 74.4218 29.4931C73.3852 30.4513 72.0726 30.799 70.7153 30.8454C70.1112 30.8609 69.4997 30.8609 68.8956 30.7759C66.0393 30.3277 64.7118 29.0218 64.2345 25.7685C63.6901 22.0131 63.6454 18.1958 64.2942 14.4403C64.9654 10.5534 67.2773 9.17795 70.8719 9.43295C74.2279 9.68023 75.7269 11.9598 76.1222 15.2053C76.3385 17.0676 76.4429 18.953 76.3981 20.8385ZM71.834 20.1276C71.834 18.8062 71.8638 17.4771 71.8191 16.1557C71.7892 15.3907 71.6923 14.618 71.5357 13.8607C71.3567 12.9875 70.8197 12.5702 70.1485 12.5857C69.4923 12.6012 69.0299 13.0184 68.7912 13.8298C68.7092 14.1312 68.6197 14.4403 68.6197 14.7416C68.6197 16.8126 68.6048 18.8912 68.5899 20.9621C68.575 22.894 68.3363 24.9185 68.9255 26.7654C69.1045 27.3295 69.5668 27.6386 70.1709 27.6386C70.7601 27.6386 71.1479 27.3372 71.3642 26.7963C71.5357 26.379 71.6848 25.9231 71.6848 25.4749C71.737 23.6976 71.834 21.9126 71.834 20.1276ZM57.6568 16.2407C58.0521 14.2394 58.4249 12.2843 58.8351 10.3216C59.3497 7.82566 59.924 5.32973 60.4311 2.82608C60.5579 2.21562 60.7965 2.0688 61.3558 2.08425C62.5565 2.13062 63.7796 2.09971 65.0623 2.09971C64.6447 3.69154 64.2345 5.2061 63.8318 6.69747C62.5565 11.3802 61.2813 16.0785 60.0209 20.7767C59.924 21.1399 59.8792 21.534 59.8792 21.9203C59.8643 24.4858 59.8792 27.0436 59.8792 29.609V30.4436H55.5015C55.4866 30.2118 55.4568 29.9799 55.4568 29.7481C55.4568 28.2954 55.3449 26.8349 55.4717 25.3976C55.7924 21.9435 54.7334 18.7676 53.8757 15.553C52.7421 11.303 51.5936 7.03748 50.4601 2.78744C50.4004 2.58653 50.378 2.37016 50.3184 2.12289H54.7856C55.7252 6.81338 56.6724 11.5039 57.6568 16.2407ZM143.309 21.6267H135.762C135.844 23.1953 135.874 24.6867 136.03 26.1626C136.142 27.1904 136.687 27.6308 137.544 27.6386C138.439 27.654 138.961 27.1904 139.17 26.1704C139.237 25.8381 139.282 25.5058 139.312 25.1658C139.342 24.8644 139.357 24.5399 139.379 24.1072C140.654 24.1767 141.9 24.254 143.13 24.3081C143.846 26.5104 142.556 29.3386 140.386 30.2118C138.678 30.9072 136.925 30.9072 135.18 30.374C133.89 29.9799 132.928 29.1299 132.495 27.824C132.093 26.6031 131.712 25.3281 131.63 24.0531C131.407 20.908 131.325 17.7321 131.787 14.5794C131.869 14.0539 132.011 13.5516 132.167 13.0416C132.794 10.9398 134.158 9.64932 136.269 9.43295C137.418 9.31704 138.603 9.36341 139.737 9.56432C141.571 9.89659 142.548 11.2643 142.974 13.0571C143.167 13.8994 143.309 14.7648 143.339 15.6225C143.346 17.593 143.309 19.548 143.309 21.6267ZM139.021 18.9144C139.021 17.3612 139.036 15.9007 139.006 14.4325C139.006 14.0848 138.879 13.7216 138.752 13.3893C138.499 12.7403 137.969 12.5625 137.335 12.5625C136.702 12.5625 136.299 12.8948 136.142 13.4898C135.665 15.2748 135.822 17.0985 135.836 18.9298C136.978 18.9144 138.014 18.9144 139.021 18.9144Z" fill="#A8A8A8"/>
<path d="M94.3553 5.88669H89.918V2.16211H103.163V5.86351H98.7554V30.4442H94.3628L94.3553 5.88669Z" fill="#A8A8A8"/>
</svg>
