<svg width="39" height="51" viewBox="0 0 39 51" fill="none" xmlns="http://www.w3.org/2000/svg">
<rect width="39" height="51" fill="#F5F5F5"/>
<g id="Sample">
<path d="M-1279 -1954C-1279 -1955.1 -1278.1 -1956 -1277 -1956H2267C2268.1 -1956 2269 -1955.1 2269 -1954V1475C2269 1476.1 2268.1 1477 2267 1477H-1277C-1278.1 1477 -1279 1476.1 -1279 1475V-1954Z" fill="#B9B9B9"/>
<path d="M-1277 -1955H2267V-1957H-1277V-1955ZM2268 -1954V1475H2270V-1954H2268ZM2267 1476H-1277V1478H2267V1476ZM-1278 1475V-1954H-1280V1475H-1278ZM-1277 1476C-1277.55 1476 -1278 1475.55 -1278 1475H-1280C-1280 1476.66 -1278.66 1478 -1277 1478V1476ZM2268 1475C2268 1475.55 2267.55 1476 2267 1476V1478C2268.66 1478 2270 1476.66 2270 1475H2268ZM2267 -1955C2267.55 -1955 2268 -1954.55 2268 -1954H2270C2270 -1955.66 2268.66 -1957 2267 -1957V-1955ZM-1277 -1957C-1278.66 -1957 -1280 -1955.66 -1280 -1954H-1278C-1278 -1954.55 -1277.55 -1955 -1277 -1955V-1957Z" fill="black" fill-opacity="0.1"/>
<g id="Desktop" clip-path="url(#clip0_0_1)">
<rect width="1920" height="2586" transform="translate(-986 -1667)" fill="white"/>
<g id="Frame 126">
<path id="Vector" d="M4.8125 50.5312C3.48907 50.5312 2.35572 50.0596 1.41247 49.1164C0.469223 48.1731 -0.00160008 47.0406 4.08532e-06 45.7187V21.6562C4.08532e-06 20.3328 0.471629 19.1995 1.41488 18.2562C2.35813 17.313 3.49067 16.8421 4.8125 16.8438H7.21875V12.0312C7.21875 8.7026 8.3922 5.86483 10.7391 3.51794C13.086 1.17104 15.923 -0.00160252 19.25 1.64361e-06C22.5786 1.64361e-06 25.4164 1.17345 27.7633 3.52035C30.1102 5.86724 31.2829 8.70421 31.2813 12.0312V16.8438H33.6875C35.0109 16.8438 36.1443 17.3154 37.0875 18.2586C38.0308 19.2019 38.5016 20.3344 38.5 21.6562V45.7187C38.5 47.0422 38.0284 48.1755 37.0851 49.1188C36.1419 50.062 35.0093 50.5328 33.6875 50.5312H4.8125ZM19.25 38.5C20.5734 38.5 21.7068 38.0284 22.65 37.0851C23.5933 36.1419 24.0641 35.0093 24.0625 33.6875C24.0625 32.3641 23.5909 31.2307 22.6476 30.2875C21.7044 29.3442 20.5718 28.8734 19.25 28.875C17.9266 28.875 16.7932 29.3466 15.85 30.2899C14.9067 31.2331 14.4359 32.3657 14.4375 33.6875C14.4375 35.0109 14.9091 36.1443 15.8524 37.0875C16.7956 38.0308 17.9282 38.5016 19.25 38.5ZM12.0313 16.8438H26.4688V12.0312C26.4688 10.026 25.7669 8.32162 24.3633 6.91797C22.9596 5.51432 21.2552 4.8125 19.25 4.8125C17.2448 4.8125 15.5404 5.51432 14.1367 6.91797C12.7331 8.32162 12.0313 10.026 12.0313 12.0312V16.8438Z" fill="url(#paint0_linear_0_1)"/>
</g>
</g>
</g>
<defs>
<linearGradient id="paint0_linear_0_1" x1="9.97194e-07" y1="25.2655" x2="40.3977" y2="25.5827" gradientUnits="userSpaceOnUse">
<stop stop-color="#F1580C"/>
<stop offset="1" stop-color="#FBAB40"/>
</linearGradient>
<clipPath id="clip0_0_1">
<rect width="1920" height="2586" fill="white" transform="translate(-986 -1667)"/>
</clipPath>
</defs>
</svg>
