<svg width="33" height="62" viewBox="0 0 33 62" fill="none" xmlns="http://www.w3.org/2000/svg">
<g clip-path="url(#clip0_1_723)">
<path d="M32.5183 41.6131C32.5183 45.109 31.3782 48.1192 29.0979 50.644C26.8177 53.1687 23.8558 54.7282 20.212 55.3222V61.3199C20.212 61.6398 20.1089 61.9026 19.9026 62.1082C19.6964 62.3138 19.4328 62.4167 19.112 62.4167H14.4714C14.1735 62.4167 13.9157 62.3081 13.6979 62.0911C13.4802 61.874 13.3714 61.617 13.3714 61.3199V55.3222C11.8589 55.1166 10.3979 54.7624 8.98857 54.2598C7.5792 53.7571 6.41618 53.2487 5.49951 52.7346C4.58285 52.2205 3.73493 51.6722 2.95576 51.0895C2.1766 50.5069 1.64378 50.0785 1.35732 49.8043C1.07087 49.5301 0.870345 49.3245 0.755762 49.1874C0.366178 48.7076 0.343262 48.2392 0.687012 47.7822L4.22764 43.1554C4.38805 42.9269 4.6516 42.7898 5.01826 42.7441C5.36201 42.6984 5.63701 42.8013 5.84326 43.0526L5.91201 43.1211C8.5016 45.3831 11.286 46.8112 14.2651 47.4052C15.1131 47.588 15.961 47.6794 16.8089 47.6794C18.6651 47.6794 20.2979 47.1882 21.7073 46.2057C23.1167 45.2232 23.8214 43.8294 23.8214 42.0244C23.8214 41.3847 23.6495 40.7792 23.3058 40.208C22.962 39.6367 22.5782 39.1569 22.1542 38.7685C21.7302 38.3801 21.0599 37.9517 20.1433 37.4833C19.2266 37.0149 18.4703 36.6493 17.8745 36.3866C17.2787 36.1238 16.362 35.7525 15.1245 35.2727C14.2308 34.9071 13.5261 34.6215 13.0104 34.4159C12.4948 34.2102 11.7901 33.9075 10.8964 33.5076C10.0026 33.1078 9.28649 32.7536 8.74795 32.4452C8.20941 32.1367 7.56201 31.7312 6.80576 31.2285C6.04951 30.7258 5.43649 30.2403 4.9667 29.7719C4.49691 29.3035 3.99847 28.7437 3.47139 28.0926C2.9443 27.4414 2.53753 26.7788 2.25107 26.1047C1.96462 25.4307 1.72399 24.671 1.5292 23.8256C1.33441 22.9802 1.23701 22.0891 1.23701 21.1523C1.23701 17.9993 2.35993 15.2346 4.60576 12.8584C6.8516 10.4821 9.77347 8.95126 13.3714 8.26581V2.09673C13.3714 1.7997 13.4802 1.54265 13.6979 1.32559C13.9157 1.10853 14.1735 1 14.4714 1H19.112C19.4328 1 19.6964 1.10282 19.9026 1.30845C20.1089 1.51409 20.212 1.77685 20.212 2.09673V8.12872C21.5183 8.26581 22.7844 8.52857 24.0105 8.91699C25.2365 9.30542 26.2334 9.68813 27.0011 10.0651C27.7688 10.4421 28.4964 10.8705 29.1839 11.3504C29.8714 11.8302 30.3183 12.1615 30.5245 12.3443C30.7308 12.527 30.9026 12.687 31.0401 12.8241C31.4297 13.2353 31.487 13.6695 31.212 14.1264L28.4276 19.1303C28.2443 19.473 27.9808 19.6558 27.637 19.6786C27.3162 19.7472 27.0068 19.6672 26.7089 19.4387C26.6401 19.3702 26.474 19.2331 26.2104 19.0274C25.9469 18.8218 25.5 18.5191 24.8698 18.1192C24.2396 17.7194 23.5693 17.3538 22.8589 17.0225C22.1485 16.6912 21.2948 16.3941 20.2979 16.1314C19.3011 15.8686 18.3214 15.7373 17.3589 15.7373C15.1818 15.7373 13.4058 16.2285 12.0308 17.211C10.6558 18.1935 9.96826 19.4616 9.96826 21.0153C9.96826 21.6093 10.0657 22.1577 10.2604 22.6603C10.4552 23.163 10.7933 23.6371 11.2745 24.0827C11.7558 24.5282 12.2084 24.9052 12.6323 25.2137C13.0563 25.5221 13.6979 25.8763 14.5573 26.2761C15.4167 26.676 16.1099 26.9844 16.637 27.2015C17.1641 27.4185 17.9662 27.7327 19.0433 28.144C20.2578 28.6009 21.186 28.9608 21.8276 29.2236C22.4693 29.4863 23.3401 29.8862 24.4401 30.4231C25.5401 30.96 26.4052 31.4456 27.0354 31.8797C27.6657 32.3138 28.3761 32.885 29.1667 33.5933C29.9573 34.3016 30.5646 35.0271 30.9886 35.7696C31.4125 36.5122 31.7735 37.3862 32.0714 38.3915C32.3693 39.3968 32.5183 40.4707 32.5183 41.6131Z" fill="url(#paint0_linear_1_723)"/>
</g>
<defs>
<linearGradient id="paint0_linear_1_723" x1="0.445313" y1="31.7082" x2="34.1002" y2="31.8893" gradientUnits="userSpaceOnUse">
<stop stop-color="#F1580C"/>
<stop offset="1" stop-color="#FBAB40"/>
</linearGradient>
<clipPath id="clip0_1_723">
<rect width="33" height="61.4167" fill="white"/>
</clipPath>
</defs>
</svg>
