<svg width="56" height="56" viewBox="0 0 56 56" fill="none" xmlns="http://www.w3.org/2000/svg">
<rect width="56" height="56" fill="#F5F5F5"/>
<g id="Sample">
<path d="M-1620 -1951C-1620 -1952.1 -1619.1 -1953 -1618 -1953H1926C1927.1 -1953 1928 -1952.1 1928 -1951V1478C1928 1479.1 1927.1 1480 1926 1480H-1618C-1619.1 1480 -1620 1479.1 -1620 1478V-1951Z" fill="#B9B9B9"/>
<path d="M-1618 -1952H1926V-1954H-1618V-1952ZM1927 -1951V1478H1929V-1951H1927ZM1926 1479H-1618V1481H1926V1479ZM-1619 1478V-1951H-1621V1478H-1619ZM-1618 1479C-1618.55 1479 -1619 1478.55 -1619 1478H-1621C-1621 1479.66 -1619.66 1481 -1618 1481V1479ZM1927 1478C1927 1478.55 1926.55 1479 1926 1479V1481C1927.66 1481 1929 1479.66 1929 1478H1927ZM1926 -1952C1926.55 -1952 1927 -1951.55 1927 -1951H1929C1929 -1952.66 1927.66 -1954 1926 -1954V-1952ZM-1618 -1954C-1619.66 -1954 -1621 -1952.66 -1621 -1951H-1619C-1619 -1951.55 -1618.55 -1952 -1618 -1952V-1954Z" fill="black" fill-opacity="0.1"/>
<g id="Desktop" clip-path="url(#clip0_0_1)">
<rect width="1920" height="2586" transform="translate(-1327 -1664)" fill="white"/>
<g id="Frame 127">
<path id="Vector" d="M27.9583 0C12.5421 0 0 12.5421 0 27.9583V39.5415C0 42.4044 2.50786 44.7333 5.59167 44.7333H8.3875C9.129 44.7333 9.84013 44.4388 10.3645 43.9145C10.8888 43.3901 11.1833 42.679 11.1833 41.9375V27.5585C11.1833 26.817 10.8888 26.1059 10.3645 25.5816C9.84013 25.0573 9.129 24.7627 8.3875 24.7627H5.84888C7.40337 13.9428 16.7135 5.59167 27.9583 5.59167C39.2032 5.59167 48.5133 13.9428 50.0678 24.7627H47.5292C46.7877 24.7627 46.0765 25.0573 45.5522 25.5816C45.0279 26.1059 44.7333 26.817 44.7333 27.5585V44.7333C44.7333 47.8171 42.2255 50.325 39.1417 50.325H33.55V47.5292H22.3667V55.9167H39.1417C45.3093 55.9167 50.325 50.9009 50.325 44.7333C53.4088 44.7333 55.9167 42.4044 55.9167 39.5415V27.9583C55.9167 12.5421 43.3746 0 27.9583 0Z" fill="url(#paint0_linear_0_1)"/>
</g>
</g>
</g>
<defs>
<linearGradient id="paint0_linear_0_1" x1="1.4483e-06" y1="27.9582" x2="58.6702" y2="28.5628" gradientUnits="userSpaceOnUse">
<stop stop-color="#F1580C"/>
<stop offset="1" stop-color="#FBAB40"/>
</linearGradient>
<clipPath id="clip0_0_1">
<rect width="1920" height="2586" fill="white" transform="translate(-1327 -1664)"/>
</clipPath>
</defs>
</svg>
